<svg width="279" height="100" viewBox="0 0 279 100" fill="none" xmlns="http://www.w3.org/2000/svg">
<g clip-path="url(#clip0_1357_294)">
<path d="M124.359 23.7504H129.761V28.0576C131.665 24.7822 134.644 23.1406 138.695 23.1406C142.055 23.1406 144.771 24.1803 146.852 26.2557C148.928 28.3312 149.969 31.3329 149.969 35.2493C149.969 37.6804 149.458 39.8262 148.434 41.6867C147.413 43.5432 146.027 44.9815 144.277 45.9939C142.526 47.0062 140.579 47.5143 138.432 47.5143C136.422 47.5143 134.683 47.1664 133.211 46.4746C131.739 45.7828 130.589 44.7939 129.757 43.508L129.808 55.0734H124.352V23.7504H124.359ZM142.334 40.8033C143.547 39.4002 144.151 37.6022 144.151 35.4056C144.151 33.209 143.555 31.2743 142.357 29.9063C141.164 28.5383 139.421 27.8543 137.137 27.8543C135.892 27.8543 134.722 28.1514 133.631 28.7416C132.54 29.3318 131.672 30.1799 131.033 31.2743C130.393 32.3726 130.071 33.6468 130.071 35.1008V35.4564C130.071 36.9104 130.389 38.2002 131.033 39.3337C131.672 40.4672 132.528 41.3427 133.604 41.9681C134.679 42.5934 135.853 42.9061 137.137 42.9061C139.386 42.9061 141.121 42.2065 142.33 40.8033" fill="black"/>
<path d="M158.662 46.0251C156.845 45.0284 155.388 43.6096 154.297 41.7687C153.206 39.9278 152.66 37.7742 152.66 35.3079C152.66 32.8416 153.135 30.7466 154.089 28.9214C155.043 27.0961 156.401 25.6773 158.167 24.665C159.934 23.6526 162.01 23.1445 164.401 23.1445C165.787 23.1445 167.082 23.379 168.295 23.852C169.508 24.3249 170.528 24.9073 171.361 25.5991C172.193 26.2909 172.746 26.9749 173.025 27.6511L173.127 23.7504H178.477V47.0101H173.178L173.076 42.9061C172.487 44.1217 171.412 45.1965 169.853 46.1228C168.295 47.0531 166.544 47.5182 164.605 47.5182C162.458 47.5182 160.476 47.0179 158.658 46.0212M170.528 40.9518C171.879 39.619 172.554 37.868 172.554 35.7066V35.3509C172.554 33.9008 172.24 32.5993 171.62 31.4502C170.996 30.3011 170.148 29.406 169.076 28.765C168.001 28.124 166.827 27.8035 165.543 27.8035C163.325 27.8035 161.614 28.5031 160.401 29.9063C159.188 31.3095 158.584 33.123 158.584 35.3548C158.584 37.5866 159.18 39.451 160.374 40.8541C161.571 42.2573 163.29 42.9569 165.543 42.9569C167.518 42.9569 169.178 42.2886 170.528 40.9557" fill="black"/>
<path d="M205.283 47.0101H198.685L193.853 39.4119L192.502 36.8245L189.386 40.1194V47.0101H183.984V9.76562H189.335V30.1877L189.233 34.1393L198.32 23.7504H205.229L196.243 33.4826L205.283 47.0101Z" fill="black"/>
<path d="M210.941 45.8727C209.037 44.7744 207.636 43.3048 206.733 41.4639C205.83 39.6229 205.383 37.6061 205.383 35.4095C205.383 32.9432 205.913 30.7818 206.969 28.9214C208.025 27.0648 209.489 25.6343 211.357 24.6376C213.226 23.6409 215.342 23.1445 217.697 23.1445C221.367 23.1445 224.095 24.1334 225.877 26.1072C227.659 28.0849 228.554 30.8639 228.554 34.4441C228.554 35.3548 228.503 36.3007 228.397 37.2817H211.255C211.636 39.3415 212.39 40.8307 213.512 41.7414C214.639 42.6521 216.205 43.1094 218.215 43.1094C219.875 43.1094 221.245 42.9765 222.317 42.7029C223.389 42.4332 224.378 42.0619 225.277 41.5889L226.992 45.4897C226.128 46.029 224.947 46.502 223.459 46.9085C221.968 47.3149 220.17 47.5182 218.058 47.5182C215.22 47.5182 212.845 46.971 210.941 45.8727ZM223.098 33.4826C223.133 31.3876 222.666 29.9102 221.697 29.0503C220.727 28.1905 219.341 27.7566 217.54 27.7566C213.905 27.7566 211.809 29.664 211.255 33.4826H223.098Z" fill="black"/>
<path d="M234.38 28.2081H230.172V23.7485H234.38V14.2702L240.04 13.0547V23.7485H245.548V28.2081H240.04V47.0082H234.38V28.2081Z" fill="black"/>
<path d="M124.258 65.5902H129.867V69.7958C130.629 68.2089 131.744 67.009 133.219 66.196C134.691 65.383 136.379 64.9805 138.283 64.9805C142.542 65.0156 145.157 66.4501 146.126 69.2877C146.888 67.9705 148.03 66.923 149.553 66.1452C151.076 65.3674 152.685 64.9805 154.385 64.9805C156.878 64.9805 158.766 65.4456 160.049 66.3758C161.329 67.3061 162.189 68.6232 162.621 70.3274C163.052 72.0354 163.272 74.3219 163.272 77.1947V88.8499H157.608V77.1438C157.608 74.4079 157.321 72.4458 156.752 71.2654C156.179 70.085 155.08 69.4909 153.455 69.4909C151.272 69.4909 149.62 70.2101 148.493 71.6445C147.367 73.079 146.805 74.9629 146.805 77.2924V88.846H141.196V76.3309C141.196 74.5408 141.129 73.204 140.988 72.3285C140.846 71.4491 140.466 70.7573 139.845 70.2492C139.221 69.7411 138.216 69.4909 136.835 69.4909C135.622 69.4909 134.487 69.8466 133.431 70.5541C132.375 71.2654 131.528 72.2191 130.888 73.419C130.248 74.6189 129.926 75.9127 129.926 77.2963V88.8499H124.266V65.5902H124.258Z" fill="black"/>
<path d="M169.939 86.5201C168.71 84.6283 168.094 81.994 168.094 78.6131V65.5898H173.703V77.2451C173.703 79.172 173.817 80.6651 174.041 81.7282C174.264 82.7913 174.716 83.5769 175.391 84.0851C176.066 84.5932 177.079 84.8433 178.429 84.8433C179.399 84.8433 180.333 84.5736 181.236 84.0342C182.135 83.4949 182.873 82.7601 183.442 81.8298C184.015 80.8996 184.298 79.8795 184.298 78.7655V65.5898H189.856V88.8496H185.283L184.659 85.453C183.791 86.7702 182.712 87.7513 181.413 88.3923C180.113 89.0333 178.547 89.3538 176.714 89.3538C173.424 89.3538 171.163 88.4079 169.935 86.5162" fill="black"/>
<path d="M197.091 70.0518H192.883V65.5922H197.091V56.114L202.751 54.8984V65.5922H208.259V70.0518H202.751V88.8519H197.091V70.0518Z" fill="black"/>
<path d="M213.909 69.9486H210.066V65.5906H213.909V60.572C213.909 57.5312 214.663 55.1743 216.17 53.5015C217.678 51.8286 219.884 50.9922 222.792 50.9922C223.97 50.9922 225.305 51.3127 226.792 51.9537L225.701 57.1247C225.458 56.855 225.085 56.5931 224.582 56.3391C224.08 56.085 223.534 55.9599 222.946 55.9599C220.626 55.9599 219.448 57.4296 219.413 60.3688V65.5867H225.022V69.9447H219.413V88.8464H213.905V69.9447L213.909 69.9486Z" fill="black"/>
<path d="M232.506 87.865C230.688 86.8683 229.232 85.4495 228.141 83.6086C227.05 81.7676 226.504 79.614 226.504 77.1478C226.504 74.6815 226.979 72.5865 227.933 70.7612C228.887 68.9359 230.245 67.5171 232.011 66.5048C233.778 65.4925 235.854 64.9844 238.245 64.9844C239.63 64.9844 240.926 65.2189 242.139 65.6918C243.352 66.1648 244.372 66.7471 245.204 67.4389C246.037 68.1307 246.59 68.8147 246.869 69.4909L246.971 65.5902H252.321V88.8499H247.022L246.92 84.746C246.331 85.9615 245.255 87.0364 243.697 87.9627C242.139 88.8929 240.388 89.358 238.449 89.358C236.302 89.358 234.319 88.8577 232.502 87.8611M244.372 82.7917C245.723 81.4589 246.398 79.7078 246.398 77.5464V77.1907C246.398 75.7407 246.084 74.4391 245.463 73.29C244.839 72.1409 243.991 71.2459 242.92 70.6049C241.848 69.9639 240.671 69.6434 239.387 69.6434C237.169 69.6434 235.458 70.343 234.245 71.7462C233.032 73.1493 232.427 74.9629 232.427 77.1947C232.427 79.4264 233.024 81.2908 234.217 82.694C235.414 84.0971 237.134 84.7968 239.387 84.7968C241.361 84.7968 243.022 84.1284 244.372 82.7956" fill="black"/>
<path d="M279.123 88.8499H272.525L267.693 81.2517L266.342 78.6643L263.226 81.9592V88.8499H257.824V51.6055H263.175V72.0276L263.072 75.9791L272.16 65.5902H279.072L270.083 75.3225L279.123 88.8499Z" fill="black"/>
<path d="M98.8645 23.3047V23.4415H98.8527V36.2849H84.8038C81.9893 36.2849 79.7087 38.5558 79.7087 41.3582V49.9258C79.7087 52.7282 81.9893 54.999 84.8038 54.999H98.8527V81.6006C87.74 86.2126 76.745 89.0971 65.9031 90.2619V75.2492C65.9031 71.8019 63.0965 69.0072 59.6343 69.0072H52.761C49.2988 69.0072 46.4921 71.8019 46.4921 75.2492V90.4808C35.1596 89.5075 24.0272 86.5839 13.1422 81.7022V54.999H27.3088C30.1233 54.999 32.404 52.7282 32.404 49.9258V41.3582C32.404 38.5558 30.1233 36.2849 27.3088 36.2849H13.1461V23.4454H13.1382V23.3086H0V27.9598C0 30.1485 1.78212 31.923 3.98033 31.923H3.99211V84.6062C3.99211 86.3573 5.00093 87.9558 6.58678 88.7141C22.304 96.242 38.4726 100.006 54.9867 100.006C71.4536 100.006 88.2621 96.2615 105.286 88.7766C106.947 88.0457 108.015 86.412 108.015 84.6062V31.9191H108.03C110.228 31.9191 112.011 30.1446 112.011 27.9558V23.3047H98.8724H98.8645Z" fill="black"/>
<path d="M60.981 54.9954H51.1362C48.5376 54.9954 46.4336 52.8965 46.4336 50.313V40.8856C46.4336 38.2981 48.5376 36.2031 51.1362 36.2031H60.981C63.5796 36.2031 65.6836 38.302 65.6836 40.8856V50.313C65.6836 52.9004 63.5757 54.9954 60.981 54.9954Z" fill="#FE3427"/>
<path d="M104.815 13.164H61.9658L65.8755 6.42173C67.5281 3.5685 65.4633 0 62.1543 0H49.9974C46.6883 0 44.6196 3.5685 46.2761 6.42173L50.1858 13.164H7.30106C3.28541 13.164 0.0273438 16.4041 0.0273438 20.4065H112.089C112.089 16.4041 108.831 13.164 104.815 13.164Z" fill="black"/>
</g>
<defs>
<clipPath id="clip0_1357_294">
<rect width="279" height="100" fill="white"/>
</clipPath>
</defs>
</svg>
