<svg width="113" height="101" viewBox="0 0 113 101" fill="none" xmlns="http://www.w3.org/2000/svg">
<path d="M98.9553 23.4062V23.5437H98.9435V36.4452H84.8817C82.0646 36.4452 79.7819 38.7263 79.7819 41.5414V50.1477C79.7819 52.9627 82.0646 55.2439 84.8817 55.2439H98.9435V81.9657C87.8206 86.5986 76.8155 89.4961 65.9637 90.6661V75.5856C65.9637 72.1227 63.1544 69.3154 59.6891 69.3154H52.8094C49.3441 69.3154 46.5349 72.1227 46.5349 75.5856V90.886C35.1919 89.9084 24.0493 86.9716 13.1542 82.0677V55.2439H27.3339C30.151 55.2439 32.4337 52.9627 32.4337 50.1477V41.5414C32.4337 38.7263 30.151 36.4452 27.3339 36.4452H13.1582V23.5476H13.1503V23.4102H0V28.0824C0 30.281 1.78376 32.0635 3.98399 32.0635H3.99577V84.9849C3.99577 86.7439 5.00552 88.3497 6.59283 89.1114C22.3245 96.6732 38.5079 100.454 55.0372 100.454C71.5192 100.454 88.3431 96.6929 105.383 89.1742C107.045 88.44 108.114 86.7988 108.114 84.9849V32.0596H108.129C110.33 32.0596 112.113 30.2771 112.113 28.0784V23.4062H98.9632H98.9553Z" fill="black"/>
<path d="M61.0374 55.2444H51.1835C48.5825 55.2444 46.4766 53.136 46.4766 50.5408V41.0708C46.4766 38.4716 48.5825 36.3672 51.1835 36.3672H61.0374C63.6384 36.3672 65.7443 38.4756 65.7443 41.0708V50.5408C65.7443 53.14 63.6344 55.2444 61.0374 55.2444Z" fill="#FE3427"/>
<path d="M104.911 13.2235H62.0227L65.936 6.45076C67.5901 3.58463 65.5235 0 62.2113 0H50.0433C46.7311 0 44.6606 3.58463 46.3186 6.45076L50.2319 13.2235H7.30775C3.2884 13.2235 0.0273438 16.4783 0.0273438 20.4987H112.192C112.192 16.4783 108.931 13.2235 104.911 13.2235Z" fill="black"/>
</svg>
